<?xml version="1.0" standalone="no"?>
<!DOCTYPE svg PUBLIC "-//W3C//DTD SVG 20010904//EN"
 "http://www.w3.org/TR/2001/REC-SVG-20010904/DTD/svg10.dtd">
<svg version="1.0" xmlns="http://www.w3.org/2000/svg"
 width="952.000000pt" height="1144.000000pt" viewBox="0 0 952.000000 1144.000000"
 preserveAspectRatio="xMidYMid meet">
<metadata>
Created by potrace 1.16, written by Peter Selinger 2001-2019
</metadata>
<g transform="translate(0.000000,1144.000000) scale(0.100000,-0.100000)"
fill="#000000" stroke="none">
<path d="M8014 7796 l-34 -34 0 -131 0 -131 -752 -2 -753 -3 0 -180 0 -180
753 -3 752 -2 0 -211 c0 -302 -2 -299 260 -299 l160 0 0 -1775 0 -1775 -495 0
c-488 0 -495 0 -495 20 0 16 -7 20 -30 20 -28 0 -30 3 -30 38 0 35 -2 37 -30
37 -30 0 -30 0 -30 -57 l0 -58 -84 0 -84 0 -5 338 c-5 333 -12 422 -50 606
-12 59 -12 75 -1 102 19 45 8 89 -32 128 -22 21 -41 57 -60 111 -15 44 -51
135 -80 202 -55 124 -61 143 -45 143 8 0 15 16 19 45 1 6 -4 10 -10 10 -7 0
-19 8 -27 19 -12 15 -12 19 0 27 10 6 18 1 27 -16 7 -14 21 -25 31 -25 23 0
241 138 241 152 0 9 -82 161 -95 176 -6 7 -226 -109 -246 -129 -19 -19 -19
-22 -5 -44 8 -12 12 -25 9 -29 -14 -14 -31 -4 -43 24 -10 24 -17 29 -35 24
-18 -4 -26 0 -36 18 -70 135 -416 508 -586 633 -61 44 -81 65 -77 78 6 19 -12
24 -19 5 -3 -7 -5 134 -6 315 l-1 327 60 0 60 0 0 55 c0 37 -5 61 -17 75 -21
24 -63 27 -63 5 0 -9 -9 -15 -25 -15 -16 0 -25 6 -25 15 0 10 -10 15 -30 15
-20 0 -30 -5 -30 -15 0 -12 -17 -15 -95 -15 -78 0 -95 3 -95 15 0 10 -10 15
-30 15 -19 0 -29 -5 -28 -12 2 -10 -23 -14 -94 -16 -83 -2 -98 0 -98 13 0 9
-9 15 -25 15 -16 0 -25 -6 -25 -15 0 -9 -9 -15 -25 -15 -16 0 -25 6 -25 15 0
10 -10 15 -30 15 -20 0 -30 -5 -30 -15 0 -8 -4 -15 -10 -15 -6 0 -10 -27 -10
-60 l0 -59 58 -3 57 -3 3 -167 c1 -93 0 -168 -3 -168 -3 0 -59 18 -124 39
-134 45 -301 84 -441 104 l-95 13 0 90 0 89 58 3 57 3 0 59 c0 33 -4 60 -10
60 -5 0 -10 7 -10 15 0 10 -10 15 -30 15 -20 0 -30 -5 -30 -15 0 -8 -9 -15
-20 -15 -11 0 -20 7 -20 15 0 10 -10 15 -30 15 -20 0 -30 -5 -30 -15 0 -12
-17 -15 -95 -15 -78 0 -95 3 -95 15 0 10 -10 15 -30 15 -20 0 -30 -5 -30 -15
0 -12 -17 -15 -95 -15 -78 0 -95 3 -95 15 0 10 -10 15 -30 15 -20 0 -30 -5
-30 -15 0 -8 -9 -15 -19 -15 -10 0 -21 7 -25 15 -3 8 -17 15 -31 15 -16 0 -25
-6 -25 -15 0 -8 -4 -15 -10 -15 -6 0 -10 -28 -10 -62 l0 -63 55 3 55 4 0 -96
0 -96 -32 0 c-18 -1 -87 -11 -154 -23 -105 -20 -125 -21 -154 -9 -44 18 -88 6
-125 -33 -19 -20 -57 -41 -105 -58 -41 -15 -78 -27 -82 -27 -5 0 -8 77 -8 170
l0 170 60 0 60 0 0 60 c0 33 -4 60 -10 60 -5 0 -10 7 -10 15 0 10 -10 15 -30
15 -20 0 -30 -5 -30 -15 0 -9 -9 -15 -25 -15 -16 0 -25 6 -25 15 0 20 -46 20
-54 0 -5 -13 -22 -15 -98 -13 -68 2 -92 6 -91 16 2 7 -8 12 -27 12 -20 0 -30
-5 -30 -15 0 -12 -17 -15 -95 -15 -78 0 -95 3 -95 15 0 10 -10 15 -30 15 -20
0 -30 -5 -30 -15 0 -9 -9 -15 -25 -15 -16 0 -25 6 -25 15 0 22 -42 19 -63 -5
-12 -14 -17 -38 -17 -75 l0 -55 60 0 60 0 0 -323 0 -324 -83 -61 c-101 -76
-255 -218 -364 -337 -292 -319 -502 -717 -607 -1148 -29 -118 -66 -323 -66
-366 0 -6 -7 -11 -15 -11 -12 0 -15 -15 -15 -71 0 -56 -4 -77 -21 -100 -19
-27 -25 -30 -73 -27 l-51 3 -3 58 c-3 56 -4 57 -32 57 -27 0 -30 -3 -30 -34 0
-28 -4 -35 -22 -38 -15 -2 -24 -11 -26 -25 -3 -23 -4 -23 -200 -23 -108 0
-207 3 -219 6 -26 7 -32 34 -8 34 10 0 15 10 15 34 0 30 -4 35 -32 41 -45 10
-103 8 -143 -5 -27 -9 -35 -17 -35 -35 0 -21 27 -54 39 -47 3 2 7 -1 9 -7 5
-16 -74 -22 -263 -19 -172 3 -180 4 -180 23 0 17 -7 20 -48 20 -42 0 -47 -2
-47 -22 0 -23 -2 -23 -135 -23 l-135 0 0 75 c0 68 -2 75 -20 75 -17 0 -20 7
-20 39 0 25 -5 41 -15 45 -11 4 -15 -1 -15 -19 0 -23 -4 -25 -45 -25 -25 0
-45 -4 -45 -10 0 -5 18 -10 40 -10 l40 0 0 -187 0 -186 -22 20 c-23 20 -58 37
-58 27 0 -3 18 -22 40 -43 35 -33 40 -44 40 -81 0 -37 -5 -48 -40 -81 -22 -21
-40 -41 -40 -44 0 -12 20 -3 49 21 l31 26 0 -186 0 -185 -42 -4 -43 -4 48 -1
c43 -2 47 -4 47 -27 0 -16 6 -25 15 -25 11 0 15 11 15 40 0 33 3 40 20 40 18
0 20 7 20 70 l0 70 135 0 c108 0 135 -3 135 -14 0 -16 39 -25 74 -19 16 3 23
10 19 19 -4 12 31 14 221 14 124 0 226 -3 226 -8 0 -4 -10 -12 -22 -17 -14 -6
-24 -21 -26 -36 -3 -22 2 -29 29 -38 40 -14 134 -14 160 -1 24 13 27 70 4 70
-8 0 -15 7 -15 15 0 13 31 15 220 15 184 0 220 -2 220 -14 0 -8 10 -16 23 -18
18 -2 23 -10 25 -40 3 -35 6 -38 33 -38 29 0 29 1 29 55 l0 55 109 0 109 0 9
-37 c7 -27 5 -47 -4 -72 -19 -44 -8 -88 30 -124 23 -21 44 -64 79 -160 27 -73
50 -136 51 -140 2 -7 -212 -138 -248 -153 -5 -2 -21 16 -34 41 -23 44 -23 44
-52 29 -16 -8 -29 -17 -29 -20 0 -3 31 -58 69 -122 38 -64 121 -209 186 -322
161 -282 140 -254 175 -234 l29 18 -26 43 c-14 24 -24 46 -22 48 2 2 60 35
128 75 101 57 127 68 137 58 6 -7 40 -47 74 -88 430 -520 1004 -841 1690 -947
178 -27 559 -25 746 5 77 12 155 26 172 32 24 6 42 5 69 -7 48 -20 103 -5 133
36 15 22 41 36 103 57 45 15 116 41 158 59 52 22 80 29 90 22 10 -6 31 0 69
23 40 24 69 33 106 35 61 3 105 30 124 74 8 21 33 43 76 68 44 25 63 42 60 53
-3 10 22 35 76 75 107 79 310 275 410 394 148 178 287 401 389 626 l37 80 178
0 179 0 3 -57 c3 -57 4 -58 32 -58 28 0 30 2 30 40 0 38 2 40 30 40 23 0 30 4
30 20 0 20 7 20 495 20 l495 0 0 -295 0 -295 -167 0 c-150 0 -171 -2 -201 -20
-18 -11 -37 -32 -42 -46 -6 -15 -10 -234 -10 -551 l0 -525 34 -34 34 -34 536
0 536 0 32 29 33 29 3 191 3 191 165 0 165 0 -2 110 -1 110 -164 0 c-103 0
-164 -4 -164 -10 0 -5 8 -10 18 -11 13 0 12 -2 -5 -9 -21 -9 -23 -16 -23 -90
l0 -80 -55 0 -55 0 0 165 0 165 225 0 c143 0 225 4 225 10 0 6 -62 10 -165 10
l-165 0 0 155 c0 241 -5 245 -255 245 l-165 0 0 295 0 295 378 2 377 3 -380 5
-380 5 378 3 377 2 0 80 0 80 -375 0 -375 0 0 185 0 185 375 0 c243 0 375 4
375 10 0 6 -132 10 -375 10 l-375 0 0 1775 0 1775 161 0 c128 0 168 3 195 16
65 31 64 17 64 600 l0 526 -34 34 -34 34 -537 0 -537 0 -34 -34z m967 6 c-57
-31 -83 -98 -61 -156 l10 -26 -80 0 c-73 0 -80 2 -80 20 0 19 -7 20 -185 20
-178 0 -185 -1 -185 -20 0 -18 -7 -20 -80 -20 l-80 0 11 27 c20 54 -20 141
-75 163 -12 5 166 9 409 9 422 1 429 1 396 -17z m-808 -6 c51 -21 72 -62 68
-133 -1 -13 -17 -39 -36 -59 -34 -35 -38 -36 -87 -32 -42 4 -57 11 -80 37 -46
52 -33 150 24 178 53 26 68 27 111 9z m911 0 c18 -7 43 -26 55 -42 19 -24 22
-38 18 -78 -7 -76 -64 -116 -143 -101 -23 4 -38 13 -41 25 -3 10 -13 20 -22
23 -34 9 -34 103 1 145 14 16 65 41 86 42 7 0 27 -6 46 -14z m96 -558 l0 -453
-21 42 c-30 62 -114 93 -170 63 -19 -10 -19 -4 -19 334 l0 345 53 -6 c39 -4
62 -1 85 11 33 17 62 61 62 96 0 11 2 20 5 20 3 0 5 -204 5 -452z m-629 360
c0 -10 2 -10 6 0 3 9 52 12 193 12 162 0 189 -2 194 -16 3 -9 6 -180 6 -380
l0 -364 -165 0 c-140 0 -165 2 -165 15 0 8 -5 15 -10 15 -6 0 -13 -7 -16 -15
-5 -13 -36 -15 -190 -15 l-184 0 0 60 c0 47 3 60 15 60 8 0 15 7 15 15 0 8 -7
15 -15 15 -13 0 -15 32 -15 230 0 198 2 230 15 230 8 0 15 7 15 15 0 8 -7 15
-15 15 -12 0 -15 13 -15 60 l0 60 165 0 c125 0 165 -3 166 -12z m-341 -393 l0
-325 -45 0 -45 0 0 325 0 325 45 0 45 0 0 -325z m-110 110 l0 -165 -55 0 c-61
0 -60 -2 -56 90 1 25 -2 58 -7 75 l-8 29 -520 2 c-950 2 -964 3 -964 17 0 10
141 13 745 12 703 0 745 1 745 18 0 16 -42 17 -745 17 l-745 0 0 35 0 35 805
0 805 0 0 -165z m0 -298 l0 -112 -35 -19 c-36 -20 -59 -47 -68 -81 -2 -11 -5
58 -6 153 l-1 172 55 0 55 0 0 -113z m56 -157 c39 0 54 -4 54 -14 0 -8 7 -16
15 -20 21 -7 20 -94 -1 -124 -67 -96 -214 -49 -214 68 0 52 13 76 53 101 27
16 32 17 35 4 3 -11 18 -15 58 -15z m939 16 c86 -36 85 -170 -1 -211 -40 -19
-67 -19 -104 0 -42 22 -60 53 -60 107 0 37 4 50 20 58 11 6 20 17 20 26 0 31
70 43 125 20z m-185 -91 l0 -45 -325 0 -325 0 0 45 0 45 325 0 325 0 0 -45z
m-510 -105 l0 -50 -137 1 c-84 0 -128 4 -112 9 39 11 74 37 89 65 12 23 19 25
87 25 l73 0 0 -50z m350 1 c0 -34 -4 -51 -15 -55 -13 -5 -15 -214 -17 -1783
l-3 -1778 -5 1780 c-4 1415 -8 1780 -17 1779 -7 -1 -16 -2 -21 -2 -7 -2 -6
-3192 1 -3430 2 -71 0 -115 -7 -119 -6 -4 -25 -8 -43 -10 l-33 -4 -2 1783 c-3
1689 -4 1783 -20 1786 -12 2 -18 -3 -19 -15 -1 -16 -2 -17 -6 0 -4 14 -16 17
-64 17 l-59 0 0 50 0 50 165 0 165 0 0 -49z m183 19 c21 -36 48 -52 102 -61
24 -4 -22 -7 -112 -8 l-153 -1 0 50 0 50 73 0 c70 0 73 -1 90 -30z m-5303
-305 c0 -13 -40 -15 -300 -15 -260 0 -300 2 -300 15 0 13 40 15 300 15 260 0
300 -2 300 -15z m1230 0 c0 -13 -39 -15 -295 -15 -256 0 -295 2 -295 15 0 13
39 15 295 15 256 0 295 -2 295 -15z m1230 0 c0 -13 -39 -15 -294 -15 -268 0
-319 4 -299 24 3 3 138 6 300 6 254 0 293 -2 293 -15z m-2470 -55 c0 -20 -7
-20 -295 -20 -288 0 -295 0 -295 20 0 20 7 20 295 20 288 0 295 0 295 -20z
m1240 0 c0 -20 -7 -20 -300 -20 -293 0 -300 0 -300 20 0 20 7 20 300 20 293 0
300 0 300 -20z m1230 0 c0 -20 -7 -20 -295 -20 -288 0 -295 0 -295 20 0 20 7
20 295 20 288 0 295 0 295 -20z m-2580 -208 l0 -168 -57 -23 c-32 -13 -127
-59 -210 -101 -84 -43 -153 -75 -153 -72 -2 50 -2 279 -1 390 l1 142 210 0
210 0 0 -168z m1230 82 l0 -87 -46 7 c-26 3 -120 6 -210 6 l-164 0 0 80 0 80
210 0 210 0 0 -86z m1240 -224 c0 -170 -3 -310 -6 -310 -3 0 -49 27 -102 61
-53 33 -148 86 -210 117 l-112 57 1 193 1 192 214 0 214 0 0 -310z m-1170 116
c587 -78 1121 -344 1536 -764 274 -277 487 -618 614 -985 l28 -82 -38 -6 c-21
-3 -45 -11 -53 -17 -12 -10 -18 -1 -37 55 -208 623 -677 1155 -1275 1448 -315
154 -595 230 -954 256 -183 14 -409 2 -596 -31 -60 -11 -113 -20 -116 -20 -3
0 -6 13 -7 29 0 17 -5 39 -11 50 -6 11 -7 22 -3 25 16 9 246 46 352 55 137 13
415 6 560 -13z m-947 -46 c49 -39 41 -131 -12 -160 -54 -28 -123 -1 -141 56
-14 41 0 86 34 109 30 22 89 19 119 -5z m-173 -82 c0 -18 7 -42 15 -52 14 -18
8 -22 -123 -71 -236 -89 -453 -209 -657 -364 -119 -91 -335 -303 -429 -421
-393 -497 -593 -1134 -548 -1742 7 -90 21 -212 32 -273 11 -60 20 -113 20
-116 0 -3 -13 -6 -29 -7 -17 0 -39 -6 -51 -12 -12 -6 -23 -10 -25 -8 -1 2 -12
59 -24 128 -123 715 51 1443 484 2025 250 336 571 605 940 786 117 58 360 157
388 159 4 0 7 -15 7 -32z m1065 -144 c119 -17 275 -49 330 -68 22 -8 76 -26
120 -39 44 -14 110 -40 147 -56 38 -17 70 -31 73 -31 8 0 119 -60 125 -68 3
-4 18 -15 33 -25 15 -10 25 -21 23 -26 -3 -4 8 -5 25 -3 28 4 36 -7 30 -42 -1
-5 5 -6 14 -3 9 4 15 1 15 -8 0 -20 -6 -19 -43 7 -18 13 -35 23 -39 23 -4 0
-14 9 -23 20 -9 11 -14 15 -11 8 5 -8 0 -8 -18 0 -13 7 -22 15 -20 19 3 4 -3
5 -12 1 -10 -4 -15 -2 -11 4 3 5 0 10 -7 10 -23 0 -76 25 -76 36 0 6 -3 8 -6
4 -3 -3 -29 3 -58 15 -447 179 -903 224 -1351 133 -810 -164 -1472 -753 -1729
-1537 -72 -219 -104 -403 -113 -650 l-6 -168 -75 0 -75 0 6 153 c14 337 71
605 183 867 53 122 60 138 77 165 7 11 32 54 55 96 35 64 149 228 221 319 38
47 226 236 270 271 25 18 61 48 80 65 64 55 231 165 350 229 304 165 687 278
996 292 61 3 112 8 115 10 9 9 280 -8 385 -23z m-118 -84 c309 -25 567 -96
843 -233 176 -87 165 -82 155 -67 -5 9 -4 11 4 6 6 -4 9 -11 6 -15 -4 -7 156
-121 170 -121 4 0 3 5 -1 12 -4 7 -3 8 5 4 6 -4 9 -11 6 -15 -4 -8 138 -131
152 -131 3 0 -4 12 -18 28 -23 26 -23 26 9 -2 33 -31 41 -42 20 -30 -7 4 29
-36 81 -89 52 -53 98 -94 101 -92 4 3 16 -5 26 -18 l19 -22 -22 19 c-13 11
-23 15 -23 9 0 -13 45 -55 52 -48 2 3 13 -5 24 -17 l19 -23 -22 19 c-13 11
-23 15 -23 9 0 -13 45 -55 52 -47 3 3 9 0 14 -7 4 -8 3 -10 -4 -5 -18 11 -14
-3 9 -35 11 -16 24 -27 29 -24 4 3 14 -3 21 -13 13 -15 12 -16 -3 -3 -10 7
-18 11 -18 7 0 -15 73 -115 81 -111 4 3 11 0 15 -6 4 -8 3 -9 -4 -5 -19 12
-14 0 33 -85 122 -215 217 -482 259 -734 19 -107 38 -403 29 -445 l-5 -30
-251 0 -250 0 98 101 98 101 -56 56 -57 57 -50 -50 -50 -49 0 57 c0 79 -27
107 -100 107 l-52 0 41 46 c23 26 41 50 41 53 0 4 -24 30 -53 59 l-53 52 -103
-105 -104 -105 -50 0 c-49 0 -51 -1 -139 -87 -49 -48 -97 -88 -106 -88 -9 0
-16 -6 -14 -14 2 -8 -8 -26 -21 -40 -51 -54 -58 -99 -21 -135 14 -15 -28 -16
-465 -16 -335 0 -482 3 -487 11 -4 8 -9 8 -17 0 -7 -7 -87 -11 -237 -11 -134
0 -219 4 -211 9 8 5 11 16 7 26 -3 10 0 28 8 40 14 21 12 25 -19 55 -34 33
-35 33 -55 15 -15 -13 -23 -15 -33 -6 -8 6 -17 8 -21 4 -4 -4 -4 0 -1 8 4 10
-8 28 -35 52 -22 20 -40 39 -40 42 0 3 36 5 80 5 l80 0 0 50 0 50 -80 0 -80 0
0 75 0 75 -65 0 -65 0 0 110 0 110 -80 0 -80 0 0 -115 c0 -92 3 -115 14 -115
19 0 26 -22 26 -86 l0 -54 -45 0 c-32 0 -52 -6 -67 -20 -19 -17 -19 -20 -5
-26 10 -3 17 -17 17 -30 0 -22 4 -24 50 -24 l50 0 0 -46 c0 -36 -6 -51 -27
-73 -29 -29 -45 -56 -63 -103 l-10 -28 -119 0 c-66 0 -126 3 -135 6 -10 4 -16
18 -16 40 l0 34 75 0 75 0 0 50 0 50 -75 0 -74 0 -3 73 -3 72 -62 3 -63 3 0
109 0 110 -80 0 -80 0 0 -64 c0 -36 -5 -68 -10 -71 -6 -4 -7 -12 -3 -18 12
-19 13 -60 1 -74 -11 -13 -8 -15 27 -17 17 -1 20 -9 23 -63 l3 -62 -53 -3 -53
-3 0 -45 0 -45 44 -3 43 -3 -22 -24 c-19 -20 -21 -27 -10 -40 11 -13 -28 -15
-370 -15 l-383 0 7 149 c8 175 20 280 47 411 188 914 919 1617 1844 1775 190
32 361 40 542 25z m1653 -800 c0 -16 49 -59 54 -47 2 7 5 4 5 -5 1 -10 6 -18
12 -18 7 0 9 -10 7 -25 -4 -19 -2 -23 7 -15 8 7 21 -3 44 -35 l33 -46 -26 5
c-18 3 -23 1 -20 -9 7 -16 44 -27 44 -12 0 6 3 7 8 3 4 -4 7 -18 7 -29 0 -15
5 -21 18 -19 11 2 17 -4 17 -17 0 -11 3 -21 8 -23 9 -4 40 -61 108 -199 104
-209 177 -464 209 -731 8 -69 15 -174 15 -232 l0 -106 -33 0 -34 0 -6 173 c-9
257 -51 476 -137 717 -44 125 -154 351 -219 451 -22 34 -38 66 -34 72 3 6 1 7
-5 3 -6 -3 -16 3 -22 14 -6 11 -7 20 -3 20 4 0 -3 7 -15 16 -13 9 -21 22 -18
30 3 8 1 14 -5 14 -14 0 -49 43 -42 52 6 11 23 10 23 -2z m720 -705 c16 -8 34
-24 40 -34 18 -35 12 -88 -14 -118 -20 -23 -32 -28 -71 -28 -39 0 -51 5 -71
28 -42 49 -30 122 24 151 35 19 56 20 92 1z m59 -315 c146 -878 -149 -1751
-799 -2366 -258 -244 -583 -441 -918 -558 l-102 -35 0 32 c0 18 -7 42 -15 54
-15 21 -13 22 68 49 366 121 760 380 1025 674 369 408 584 876 653 1425 27
211 11 567 -34 782 l-13 61 32 0 c18 0 40 5 51 10 10 6 21 8 25 4 3 -4 16 -63
27 -132z m-3339 79 c0 -61 -15 -79 -67 -79 -52 0 -63 14 -63 77 l0 53 65 0 65
0 0 -51z m2330 -125 l45 -45 -58 -55 c-32 -30 -66 -54 -76 -54 -18 0 -65 44
-74 70 -4 13 97 130 113 130 3 0 26 -21 50 -46z m-2960 -53 c0 -65 -6 -71 -65
-71 -59 0 -65 6 -65 71 l0 59 65 0 65 0 0 -59z m750 -141 c0 -60 -4 -100 -10
-100 -5 0 -10 9 -10 21 0 12 -5 19 -12 16 -7 -2 -12 -10 -10 -16 3 -17 -15
-13 -22 4 -3 8 -10 15 -16 15 -5 0 -10 -7 -10 -15 0 -8 -4 -15 -10 -15 -5 0
-10 7 -10 16 0 9 -6 14 -12 12 -7 -3 -13 -11 -13 -18 0 -7 -6 -15 -12 -17 -10
-4 -13 20 -13 96 l0 101 80 0 80 0 0 -100z m1936 11 c-32 -33 -64 -57 -70 -55
-6 2 -31 -16 -56 -41 -39 -40 -43 -48 -32 -65 17 -28 15 -36 -6 -17 -14 13
-21 14 -30 5 -10 -10 -17 -7 -34 10 l-23 22 95 95 c94 94 104 100 180 104 l34
1 -58 -59z m396 29 c13 -16 18 -40 18 -79 0 -54 -2 -59 -44 -100 -27 -26 -42
-49 -39 -58 3 -9 -12 -32 -38 -59 -66 -67 -85 -63 -189 41 l-84 85 59 60 c38
38 65 58 75 55 10 -3 33 12 60 41 l45 46 60 -5 c45 -4 64 -11 77 -27z m-6033
-187 c3 -189 -10 -473 -20 -473 -5 0 -9 137 -9 305 0 255 2 305 14 305 11 0
14 -27 15 -137z m6221 23 c0 -16 -103 -116 -119 -116 -20 0 -81 60 -81 79 0 9
26 41 57 73 l57 58 43 -42 c24 -23 43 -47 43 -52z m-4730 -206 c0 -283 0 -290
-20 -290 -20 0 -20 7 -20 290 0 283 0 290 20 290 20 0 20 -7 20 -290z m4395
-130 l-39 -40 -178 177 c-98 98 -177 182 -175 188 2 5 17 9 33 10 24 0 29 4
30 25 1 14 2 29 3 35 0 5 83 -72 183 -172 l182 -183 -39 -40z m-2805 289 c0
-80 -3 -99 -15 -99 -9 0 -12 6 -9 15 4 10 0 15 -11 15 -12 0 -15 -5 -11 -17 5
-13 1 -12 -17 6 -24 22 -26 22 -36 4 -6 -10 -11 -13 -11 -7 0 6 -11 16 -25 22
-23 11 -25 16 -25 86 l0 74 80 0 80 0 0 -99z m680 56 l24 -26 -104 -101 c-58
-56 -140 -136 -182 -177 l-77 -75 -21 24 c-11 13 -20 26 -20 29 0 8 343 351
351 351 3 0 16 -11 29 -25z m-110 9 l32 -7 -93 -93 -94 -94 -52 0 c-32 0 -53
4 -53 11 0 6 11 32 26 58 38 70 108 116 195 130 4 1 21 -2 39 -5z m-3370 -254
l0 -200 -22 -2 c-57 -3 -224 -4 -235 0 -10 3 -13 53 -13 203 l0 199 135 0 135
0 0 -200z m480 179 c0 -14 10 -24 30 -32 27 -10 30 -16 30 -52 0 -41 0 -41
-35 -37 -34 4 -35 3 -35 -32 0 -33 -2 -36 -30 -36 -19 0 -30 5 -30 14 0 8 -6
17 -12 19 -7 3 -3 6 10 6 12 1 22 7 22 15 0 9 -18 15 -52 20 -96 11 -108 9
-108 -19 0 -25 -1 -25 -85 -25 l-85 0 0 90 0 90 190 0 c186 0 190 0 190 -21z
m630 -184 l0 -205 -95 0 -95 0 12 22 c7 13 21 28 30 35 22 18 40 75 33 106 -4
14 -15 33 -26 43 -21 19 -17 34 12 34 10 0 19 6 19 14 0 10 -20 16 -69 21 -74
7 -91 3 -91 -22 0 -28 -31 -53 -67 -53 -26 0 -33 4 -33 20 0 11 7 20 15 20 8
0 15 7 15 15 0 16 -60 31 -85 21 -12 -4 -15 3 -15 33 0 25 5 41 15 45 8 3 15
17 15 31 l0 25 205 0 205 0 0 -205z m280 98 c0 -60 5 -148 10 -198 5 -49 7
-91 4 -94 -3 -3 -43 -6 -89 -7 l-85 -2 0 204 0 204 80 0 80 0 0 -107z m2150 2
l24 -25 -65 -66 c-35 -36 -95 -93 -132 -126 -66 -59 -68 -60 -87 -43 -11 10
-20 23 -20 29 0 11 240 256 251 256 3 0 16 -11 29 -25z m1898 -268 l-21 -29
-133 133 c-73 73 -130 137 -127 143 3 6 13 19 21 29 15 17 24 10 148 -114
l133 -133 -21 -29z m-2635 95 l138 -138 -25 -23 c-19 -18 -28 -20 -43 -13 -10
6 -74 67 -142 137 l-124 126 23 24 c13 14 26 25 29 25 4 0 68 -62 144 -138z
m-2403 8 l0 -80 -75 0 -75 0 0 80 0 80 75 0 75 0 0 -80z m2450 -315 l-25 -25
-180 180 -179 179 24 26 24 26 180 -181 181 -180 -25 -25z m4060 -59 c0 -250
-2 -285 -16 -290 -9 -3 -18 -6 -20 -6 -2 0 -4 131 -4 290 0 283 0 290 20 290
20 0 20 -7 20 -284z m-60 -33 l0 -202 -145 -3 c-80 -2 -145 -3 -145 -2 0 1 18
70 39 155 22 85 42 175 46 201 8 53 9 53 137 53 l68 0 0 -202z m1120 13 l0
-185 -490 -1 -490 0 0 185 0 185 490 0 490 0 0 -184z m-6155 47 c205 -795 836
-1432 1628 -1643 219 -58 347 -74 602 -73 202 0 247 3 375 26 386 69 702 206
1009 437 403 303 703 751 832 1238 l32 122 39 0 c30 0 38 -4 38 -17 0 -30 -47
-223 -75 -313 -29 -92 -126 -327 -155 -375 -16 -26 -56 -99 -94 -171 -18 -33
-181 -255 -218 -295 -269 -299 -550 -499 -888 -633 -708 -280 -1500 -216
-2158 174 -526 312 -926 832 -1096 1427 -19 65 -37 137 -41 161 l-7 42 75 0
74 0 28 -107z m647 70 l3 -38 77 -3 77 -3 3 -72 3 -72 78 -3 c58 -2 77 -6 77
-17 0 -8 9 -19 19 -25 44 -23 81 30 42 61 -14 12 -21 29 -21 52 0 50 36 77
101 77 31 0 49 4 49 12 0 7 12 25 27 40 25 27 31 28 117 28 l90 0 -32 -33
c-36 -37 -38 -44 -17 -67 14 -16 11 -22 -37 -68 -46 -45 -50 -52 -37 -68 9
-11 13 -35 11 -74 -4 -71 23 -142 76 -193 50 -49 104 -70 183 -71 36 -1 72 -6
80 -13 11 -9 22 -4 52 23 22 21 35 40 31 47 -4 7 -4 9 1 5 4 -4 14 -3 22 3 10
9 18 7 34 -7 19 -17 21 -17 56 19 36 35 36 37 19 56 -10 11 -15 24 -12 30 4 6
-2 19 -13 30 -11 11 -22 41 -26 72 -9 70 -25 107 -65 153 -42 48 -100 77 -170
86 l-55 7 68 2 67 1 0 30 0 30 1409 0 1409 -1 -28 -108 c-112 -425 -363 -835
-684 -1113 -61 -54 -65 -56 -26 -15 l44 47 -62 63 c-34 34 -62 68 -62 75 0 7
68 83 151 167 l152 155 -17 44 c-9 24 -32 65 -51 92 -24 34 -31 51 -24 60 13
15 -3 26 -26 18 -9 -4 -25 2 -38 13 -30 27 -65 47 -113 65 l-41 16 -278 -278
-279 -279 19 -43 c46 -105 128 -191 230 -239 l60 -29 62 62 63 63 71 -71 70
-70 -88 -63 c-305 -218 -646 -354 -1023 -407 -137 -20 -444 -22 -570 -5 -160
22 -295 53 -445 102 -714 234 -1272 820 -1469 1544 -15 55 -30 108 -33 118 -4
16 16 17 316 17 l320 0 3 -37z m985 -75 c77 -36 133 -123 133 -206 0 -17 -4
-33 -8 -36 -5 -3 -53 40 -108 95 -77 77 -99 106 -99 127 0 23 -4 27 -27 25
-27 -2 -35 6 -21 20 10 11 85 -4 130 -25z m-1857 -3 c104 -54 36 -212 -74
-175 -45 14 -66 44 -66 90 0 78 70 121 140 85z m1947 -292 l-27 -28 -140 140
-140 139 27 28 27 29 141 -141 140 -140 -28 -27z m-215 60 l177 -177 -21 -23
c-12 -13 -26 -23 -32 -23 -6 0 -90 79 -186 175 l-174 174 24 26 c13 14 26 25
29 25 3 0 86 -80 183 -177z m36 -211 c-120 -9 -230 78 -252 200 -4 20 -4 49 0
63 6 26 12 21 151 -116 l143 -144 -42 -3z m-1671 108 c283 -733 905 -1295
1678 -1515 223 -64 545 -102 760 -90 140 7 336 30 417 49 l56 13 0 -32 c0 -18
5 -42 11 -54 15 -27 17 -25 -129 -50 -393 -67 -790 -44 -1180 68 -711 205
-1316 717 -1636 1386 -51 106 -144 339 -144 360 0 3 15 5 33 5 18 0 42 6 53
14 17 13 20 12 28 -12 4 -15 28 -79 53 -142z m6555 -67 c0 -5 2 -141 3 -303 1
-268 3 -295 18 -298 16 -3 17 21 19 305 l3 308 2 -302 c2 -187 7 -303 13 -303
6 0 11 116 13 303 l2 302 3 -352 2 -353 -165 0 -165 0 0 44 c0 43 1 44 33 44
17 0 56 1 85 2 l52 2 0 304 0 304 40 0 c22 0 41 -3 42 -7z m-2853 -68 c10 3
24 -1 31 -10 12 -14 2 -28 -71 -101 -46 -46 -85 -80 -87 -74 -5 13 -39 13 -47
0 -4 -6 -1 -18 6 -26 10 -13 2 -25 -52 -80 -35 -35 -69 -64 -77 -64 -7 0 -15
-7 -19 -16 -5 -12 -12 -9 -39 17 l-34 33 57 58 c52 52 58 56 65 38 9 -24 31
-26 49 -4 12 14 11 19 -8 33 -21 16 -21 17 85 123 95 96 107 106 114 87 6 -14
14 -19 27 -14z m123 -8 c-2 -10 6 -17 20 -19 17 -2 23 -10 23 -28 0 -19 5 -25
23 -24 12 0 22 -2 22 -5 0 -11 -480 -486 -481 -476 -1 6 -2 17 -3 25 0 8 -10
15 -21 15 -14 0 -21 8 -23 28 -2 19 -9 27 -20 26 -9 -1 -21 -1 -27 0 -5 0 98
109 230 241 132 132 244 238 250 236 5 -1 9 -10 7 -19z m-3713 -360 c24 -38
40 -72 35 -76 -9 -8 -99 -58 -193 -108 -42 -22 -45 -22 -56 -5 -20 28 -184
311 -205 353 l-20 39 32 15 c49 24 92 47 98 54 3 4 32 21 65 38 l59 31 71
-136 c39 -75 91 -168 114 -205z m-490 251 c65 -103 312 -538 306 -538 -2 0
-10 -3 -18 -6 -11 -4 -55 63 -165 253 -185 319 -175 300 -159 306 20 9 22 8
36 -15z m4305 -91 c9 -15 -17 -45 -173 -200 -101 -100 -177 -171 -170 -158 12
20 12 24 -3 34 -16 10 2 32 149 179 93 93 172 167 177 165 5 -2 14 -11 20 -20z
m-139 -414 c-26 -24 -50 -43 -54 -43 -4 0 -24 18 -46 40 l-38 39 47 47 47 47
45 -44 45 -44 -46 -42z m2495 37 l0 -50 -73 0 c-70 0 -73 1 -90 30 -57 95
-212 72 -240 -35 -4 -16 -5 -14 -6 6 -1 30 32 77 63 89 11 5 94 9 184 9 l162
1 0 -50z m607 36 c-44 -16 -74 -40 -82 -67 -6 -16 -17 -19 -81 -19 l-74 0 0
50 0 50 138 0 c128 -1 134 -2 99 -14z m-827 -21 c43 -22 60 -53 60 -108 0 -40
-3 -50 -20 -54 -11 -3 -20 -13 -20 -23 0 -9 -11 -22 -25 -28 -80 -37 -165 22
-165 113 0 47 14 71 53 95 38 24 78 25 117 5z m920 0 c77 -40 79 -165 4 -205
-21 -12 -28 -12 -31 -2 -3 7 -24 12 -59 12 -39 0 -54 4 -54 14 0 8 -7 16 -15
20 -11 4 -15 20 -15 54 0 97 86 151 170 107z m-190 -120 l0 -45 -325 0 -325 0
0 45 0 45 325 0 325 0 0 -45z m-845 -99 c38 -18 73 -20 109 -6 l26 10 0 -346
c0 -326 -1 -346 -17 -339 -10 4 -34 9 -53 12 -44 6 -98 -28 -122 -77 -17 -34
-18 -21 -18 405 l0 440 21 -42 c13 -26 32 -47 54 -57z m1115 -21 l0 -115 -55
0 -55 0 0 60 c0 54 2 61 23 69 28 11 77 66 77 87 0 8 2 14 5 14 3 0 5 -52 5
-115z m-707 55 c62 0 77 -3 77 -15 0 -19 16 -20 27 -1 6 10 48 15 163 19 85 3
168 3 183 0 25 -5 27 -9 27 -56 0 -36 -5 -54 -17 -63 -17 -13 -17 -15 0 -28
15 -12 17 -36 17 -240 0 -194 -2 -226 -15 -226 -8 0 -15 -7 -15 -15 0 -8 7
-15 15 -15 12 0 15 -13 15 -60 l0 -60 -165 0 c-122 0 -165 3 -165 12 0 9 -3 9
-12 0 -19 -19 -365 -17 -384 2 -12 12 -14 77 -14 380 l0 365 28 4 c15 3 56 3
92 1 36 -2 100 -4 143 -4z m577 -355 l0 -325 -45 0 -45 0 0 325 0 325 45 0 45
0 0 -325z m129 -332 c-1 -116 -3 -140 -11 -113 -12 43 -34 69 -73 85 l-30 13
3 81 4 81 54 0 54 0 -1 -147z m-3976 73 c33 -31 43 -68 27 -107 -26 -62 -104
-80 -157 -35 -23 20 -28 32 -28 71 0 39 5 51 28 71 38 33 95 33 130 0z m2994
-137 c3 -9 13 -19 24 -22 16 -4 19 -14 19 -57 0 -46 -4 -56 -34 -86 -29 -29
-41 -34 -81 -34 -40 0 -52 5 -81 34 -28 28 -34 42 -34 75 0 73 32 110 105 124
30 5 77 -14 82 -34z m930 -4 c33 -33 35 -38 31 -87 -4 -42 -11 -57 -37 -80
-53 -48 -149 -33 -181 27 -20 38 -19 104 3 120 9 7 17 17 17 23 0 19 33 31 84
32 42 0 52 -4 83 -35z m-213 -49 c-12 -67 29 -137 92 -156 17 -5 -153 -8 -421
-8 -268 0 -438 3 -421 8 65 20 108 100 87 161 l-10 29 340 0 340 0 -7 -34z"/>
<path d="M8632 5558 c1 -585 3 -1045 4 -1023 7 92 8 2085 2 2085 -5 0 -7 -478
-6 -1062z"/>
<path d="M3042 5140 l-283 -273 28 -31 c64 -72 268 -276 276 -276 5 0 101 89
213 198 152 146 210 196 225 194 17 -3 20 0 15 16 -5 14 7 32 49 71 30 29 55
56 55 60 0 5 -66 77 -147 161 l-148 153 -283 -273z m102 23 c-301 -293 -339
-326 -353 -309 -9 11 43 66 260 275 230 222 274 260 286 249 13 -11 -15 -42
-193 -215z m253 155 c18 -18 33 -37 33 -44 0 -7 -20 -30 -44 -51 -24 -21 -146
-137 -271 -257 l-226 -219 -35 34 c-19 18 -33 39 -32 45 3 11 528 523 538 524
2 0 19 -14 37 -32z m142 -146 l30 -39 -271 -262 -272 -261 -38 37 c-35 35 -37
38 -21 55 10 11 24 16 35 12 13 -4 42 19 113 88 80 79 99 93 127 93 31 0 33 2
33 37 0 34 9 47 100 138 55 55 96 100 91 100 -5 0 -1 9 9 20 24 27 29 26 64
-18z m-269 -155 c-63 -62 -141 -137 -173 -166 -56 -53 -57 -54 -78 -35 -20 18
-19 19 153 185 172 166 173 167 193 148 20 -19 19 -20 -95 -132z m327 92 c7
-7 -70 -88 -261 -274 -232 -225 -273 -261 -285 -250 -12 12 13 40 175 197 104
100 225 217 269 260 44 43 82 78 86 78 3 0 10 -5 16 -11z"/>
<path d="M4675 5150 c-13 -15 -21 -17 -31 -9 -10 8 -19 4 -37 -15 -19 -20 -34
-26 -68 -26 -119 -1 -220 -100 -236 -231 -4 -31 -14 -60 -25 -71 -11 -11 -17
-26 -14 -35 4 -9 -1 -24 -11 -35 -16 -18 -15 -20 17 -53 33 -34 34 -35 54 -17
17 16 25 17 43 7 13 -6 21 -14 18 -17 -3 -2 11 -19 30 -38 29 -28 36 -31 50
-20 10 9 39 12 81 11 54 -2 76 2 121 24 94 46 155 159 139 257 -5 31 -3 45 10
60 17 18 16 20 -15 52 -22 22 -39 32 -50 29 -9 -4 -13 -3 -9 2 4 4 3 14 -3 22
-9 10 -7 18 7 34 17 19 17 21 -17 55 -35 35 -35 35 -54 14z m-89 -71 c4 -6
-37 -55 -97 -115 -77 -77 -106 -101 -116 -93 -18 15 -35 1 -31 -26 2 -13 -1
-24 -7 -25 -5 0 -11 18 -13 40 -4 54 35 139 80 174 61 46 167 72 184 45z m68
-71 c-5 -8 -63 -67 -129 -130 -120 -115 -120 -116 -143 -98 -12 10 -22 22 -22
26 0 5 57 66 127 136 l128 128 23 -24 c17 -16 22 -28 16 -38z m-19 -228 l-180
-180 -25 25 -25 25 180 180 180 180 25 -25 25 -25 -180 -180z m129 -37 c-16
-34 -41 -65 -66 -83 -45 -33 -133 -56 -174 -46 -27 7 -24 10 117 152 l144 144
3 -56 c2 -45 -2 -68 -24 -111z"/>
<path d="M4573 4559 c-7 -7 -23 -13 -37 -14 -37 -4 -176 -87 -176 -105 0 -16
-81 -70 -105 -70 -8 0 -36 -13 -62 -29 -26 -16 -50 -28 -54 -26 -3 3 -30 43
-60 90 -30 47 -57 85 -61 85 -10 0 -128 -74 -128 -80 0 -16 119 -195 128 -193
14 3 88 -116 84 -134 -2 -7 4 -14 13 -14 8 -1 20 -2 27 -3 7 0 21 -16 31 -34
l19 -33 -71 -73 c-39 -41 -71 -78 -71 -83 0 -22 198 -199 250 -225 l55 -27 47
45 c28 29 51 43 58 39 8 -5 2 -14 -19 -27 -17 -11 -31 -24 -31 -29 0 -4 21
-42 46 -84 l45 -75 32 17 c18 9 37 16 43 15 15 -3 168 97 160 105 -8 8 95 72
116 73 22 0 169 90 163 99 -2 4 9 15 26 25 16 9 29 22 29 28 0 6 -21 44 -46
84 l-46 74 -33 -20 -33 -20 -32 52 c-18 29 -39 62 -46 73 -13 19 -7 28 68 109
l82 88 -29 54 c-16 30 -51 75 -77 101 -26 26 -48 55 -48 65 0 14 -5 17 -23 13
-17 -5 -31 3 -57 30 l-34 35 -32 -31 -31 -30 -23 35 c-22 37 -38 44 -57 25z
m-479 -224 c-6 -15 -77 -55 -97 -55 -13 0 -67 76 -67 94 0 4 24 21 53 40 l52
34 32 -51 c17 -28 29 -56 27 -62z m525 88 c-4 -25 3 -35 21 -30 11 3 -69 -90
-178 -205 -108 -116 -212 -228 -231 -250 l-34 -40 -21 21 -20 21 35 37 c19 21
62 67 95 103 210 226 327 350 330 350 2 0 3 -3 3 -7z m159 -10 c-2 -11 3 -18
12 -18 25 -1 38 -14 33 -34 -4 -15 1 -20 23 -23 26 -3 15 -17 -191 -238 -324
-349 -375 -401 -385 -395 -5 3 -7 12 -4 20 4 8 -3 15 -17 17 -15 2 -25 12 -29
28 -4 15 -13 24 -23 24 -9 -1 -17 2 -17 6 0 11 580 630 591 630 6 0 9 -8 7
-17z m-366 -63 l37 -59 -50 -31 c-27 -16 -53 -30 -57 -30 -7 0 -72 107 -72
118 1 8 81 60 95 61 6 0 27 -26 47 -59z m286 40 c-5 -17 -478 -520 -488 -520
-6 0 -10 3 -10 8 0 4 108 123 240 265 213 228 270 282 258 247z m165 -188 c-5
-11 -2 -14 10 -9 26 10 21 -2 -29 -59 -45 -54 -46 -54 -62 -33 -11 13 -23 18
-35 14 -23 -10 -22 -44 3 -53 17 -6 -3 -32 -148 -189 -92 -100 -170 -182 -174
-182 -5 -1 -8 6 -8 14 0 8 -8 15 -17 15 -9 0 -25 7 -35 16 -17 16 -12 23 94
136 62 66 114 115 116 109 2 -6 12 -11 23 -11 26 0 37 31 17 44 -14 8 -2 25
73 105 106 114 136 135 161 114 9 -8 14 -22 11 -31z m-25 -245 c-1 -7 10 -25
25 -41 14 -16 24 -33 21 -38 -3 -5 6 -20 21 -34 16 -15 24 -31 21 -40 -4 -9 3
-18 17 -24 15 -6 17 -9 6 -9 -9 -1 -19 -8 -23 -16 -3 -8 -12 -12 -21 -9 -9 4
-15 1 -16 -7 0 -8 -4 -4 -10 9 -5 13 -13 21 -18 17 -10 -6 -26 32 -22 53 1 8
-7 16 -18 19 -19 5 -34 31 -35 63 -1 8 -7 15 -13 15 -7 0 -13 5 -13 10 1 6 10
9 20 7 14 -2 23 5 30 23 9 25 33 26 28 2z m-42 -194 c20 -31 38 -61 40 -67 4
-13 -102 -80 -115 -72 -15 10 -83 130 -74 133 4 2 28 17 53 33 25 16 48 30 52
30 4 0 24 -26 44 -57z m-242 13 c-3 -7 6 -21 20 -30 16 -10 26 -26 26 -41 0
-14 6 -25 13 -25 18 0 38 -36 31 -55 -5 -11 0 -18 15 -22 20 -5 20 -7 -13 -29
-42 -29 -46 -29 -46 -4 0 11 -7 20 -15 20 -15 0 -37 33 -33 49 2 5 -7 18 -20
29 -32 28 -35 71 -8 99 24 25 38 30 30 9z"/>
<path d="M4028 2290 c-17 -10 -18 -37 -18 -335 l0 -325 73 0 c49 0 80 -5 93
-15 29 -22 756 -22 774 0 9 11 33 15 91 15 l79 0 0 319 c0 380 7 358 -109 345
-97 -10 -792 -11 -891 -1 -49 5 -81 4 -92 -3z m316 -55 c7 -19 35 -19 42 0 5
11 37 14 179 14 142 0 174 -3 179 -14 7 -19 35 -19 42 0 9 22 139 21 148 -1 4
-10 14 -14 26 -11 33 8 23 -19 -14 -42 -32 -20 -46 -21 -381 -21 -335 0 -349
1 -381 21 -37 23 -47 50 -14 42 12 -3 22 1 26 11 9 22 139 23 148 1z"/>
</g>
</svg>
