<?xml version="1.0" encoding="UTF-8" standalone="no"?>
<!DOCTYPE svg PUBLIC "-//W3C//DTD SVG 1.1//EN" "http://www.w3.org/Graphics/SVG/1.1/DTD/svg11.dtd">
<svg width="100%" height="100%" viewBox="0 0 1125 1125" version="1.1" xmlns="http://www.w3.org/2000/svg" xmlns:xlink="http://www.w3.org/1999/xlink" xml:space="preserve" xmlns:serif="http://www.serif.com/" style="fill-rule:evenodd;clip-rule:evenodd;stroke-linecap:round;stroke-linejoin:round;stroke-miterlimit:1.5;">
    <g id="Artboard1" transform="matrix(1,0,0,1,-261.331,-492.409)">
        <rect x="261.331" y="492.409" width="1124.06" height="1124.06" style="fill:none;"/>
        <g transform="matrix(1.35404e-17,-0.221131,0.221131,1.35404e-17,635.285,1432.24)">
            <path d="M1831.57,1134.8L1966.16,1404L1414.99,1404L1549.59,1134.8L1831.57,1134.8Z" style="fill:rgb(235,235,235);stroke:black;stroke-width:13.19px;"/>
        </g>
        <g transform="matrix(0.221131,0,0,0.221131,535.742,750.989)">
            <path d="M1549.91,1567.02L1549.91,1217.51C1549.91,1132.1 1500.57,1082.76 1415.16,1082.76L822.174,1082.76C736.764,1082.76 687.422,1132.1 687.422,1217.51L687.422,1567.02C687.422,1652.43 736.764,1701.77 822.174,1701.77L1415.16,1701.77C1500.57,1701.77 1549.91,1652.43 1549.91,1567.02Z" style="fill:rgb(235,235,235);stroke:black;stroke-width:13.19px;"/>
        </g>
        <g transform="matrix(0.221131,0,0,0.221131,554.096,760.149)">
            <path d="M643.681,1779.24L1500.66,922.258" style="fill:none;stroke:rgb(255,0,0);stroke-width:94.21px;"/>
        </g>
    </g>
</svg>
